<?xml version="1.0" encoding="utf-8"?>
<!-- Generator: Adobe Illustrator 27.5.0, SVG Export Plug-In . SVG Version: 6.00 Build 0)  -->
<svg version="1.1" xmlns="http://www.w3.org/2000/svg" xmlns:xlink="http://www.w3.org/1999/xlink" x="0px" y="0px"
	 viewBox="0 0 500 500" style="enable-background:new 0 0 500 500;" xml:space="preserve">
<g id="BACKGROUND">
	<rect style="fill:#FFFFFF;" width="500" height="500"/>
</g>
<g id="LOGO">
	<path style="fill:#3500C6;" d="M138.825,304.658c-24.992,0-45.325-20.333-45.325-45.325c0-11.335,4.206-22.186,11.844-30.552
		l11.816,10.788c-4.94,5.411-7.66,12.43-7.66,19.764c0,16.17,13.155,29.325,29.325,29.325s29.325-13.155,29.325-29.325
		s-13.155-29.325-29.325-29.325v-16c24.992,0,45.325,20.333,45.325,45.325S163.817,304.658,138.825,304.658z"/>
	<rect x="205.532" y="232.976" style="fill:none;" width="218.968" height="35.024"/>
	<text transform="matrix(1 0 0 1 205.5322 262.9364)" style="fill:#3500C6; font-family:'Lato-Black'; font-size:40px;">Saeid</text>
	<rect x="205.727" y="275.136" style="fill:none;" width="203.409" height="55.114"/>
	<text transform="matrix(1 0 0 1 205.7271 291.1631)" style="font-family:'Lato-Light'; font-size:22px;">Market</text>
	<rect style="fill:none;" width="500" height="500"/>
</g>
</svg>
