<svg xmlns="http://www.w3.org/2000/svg" viewBox="100 110 300 220">
  <polygon fill="#FF2424"
    points="175.161,305.71 241.364,181.032 257.427,211.102 207.24,305.71"/>

  <path fill="#FF2424"
    d="M273.469,180.934c11.16-21.654,33.653-35.851,58.813-35.851
    17.714,0,34.98,7.282,47.371,19.979l4.651,4.766
    14.008-26.223-2.839-2.553c-17.393-15.644-39.834-24.259-63.191-24.259
    -17.947,0-35.421,5.078-50.533,14.685
    -8.957,5.694-16.842,12.818-23.383,21.038z"/>

  <polygon fill="#991A5A"
    points="214.873,230.922 230.888,200.761 246.908,230.931 230.901,261.107"/>

  <path fill="#434A5B"
    d="M332.282,305.71c-31.282,0-60.9-15.904-78.377-41.792
    0,0-5.751-9.67-6.82-11.895l-43.004-80.986
    -71.56,134.673h-31.979l103.54-194.994
    71.089,133.881c11.868,20.25,33.741,32.823,57.11,32.823
    18.289,0,35.938-7.682,48.422-21.077
    l4.651-4.991 14.101,26.4-2.741,2.557
    C379.149,296.69,356.266,305.71,332.282,305.71z"/>
</svg>
